G04 #@! TF.GenerationSoftware,KiCad,Pcbnew,5.1.2-f72e74a~84~ubuntu16.04.1*
G04 #@! TF.CreationDate,2019-07-19T18:16:20+01:00*
G04 #@! TF.ProjectId,DigitalPot,44696769-7461-46c5-906f-742e6b696361,rev?*
G04 #@! TF.SameCoordinates,Original*
G04 #@! TF.FileFunction,Legend,Top*
G04 #@! TF.FilePolarity,Positive*
%FSLAX46Y46*%
G04 Gerber Fmt 4.6, Leading zero omitted, Abs format (unit mm)*
G04 Created by KiCad (PCBNEW 5.1.2-f72e74a~84~ubuntu16.04.1) date 2019-07-19 18:16:20*
%MOMM*%
%LPD*%
G04 APERTURE LIST*
%ADD10C,0.120000*%
%ADD11C,0.110000*%
G04 APERTURE END LIST*
D10*
X150622000Y-66782000D02*
X147172000Y-66782000D01*
X150622000Y-66782000D02*
X152572000Y-66782000D01*
X150622000Y-71902000D02*
X148672000Y-71902000D01*
X150622000Y-71902000D02*
X152572000Y-71902000D01*
X150759279Y-64772000D02*
X150433721Y-64772000D01*
X150759279Y-63752000D02*
X150433721Y-63752000D01*
X150784779Y-65276000D02*
X150459221Y-65276000D01*
X150784779Y-66296000D02*
X150459221Y-66296000D01*
D11*
X157454666Y-62800666D02*
X157454666Y-62100666D01*
X157454666Y-62434000D02*
X157854666Y-62434000D01*
X157854666Y-62800666D02*
X157854666Y-62100666D01*
X158554666Y-62800666D02*
X158154666Y-62800666D01*
X158354666Y-62800666D02*
X158354666Y-62100666D01*
X158288000Y-62200666D01*
X158221333Y-62267333D01*
X158154666Y-62300666D01*
X146174666Y-69875333D02*
X146741333Y-69875333D01*
X146808000Y-69842000D01*
X146841333Y-69808666D01*
X146874666Y-69742000D01*
X146874666Y-69608666D01*
X146841333Y-69542000D01*
X146808000Y-69508666D01*
X146741333Y-69475333D01*
X146174666Y-69475333D01*
X146874666Y-68775333D02*
X146874666Y-69175333D01*
X146874666Y-68975333D02*
X146174666Y-68975333D01*
X146274666Y-69042000D01*
X146341333Y-69108666D01*
X146374666Y-69175333D01*
X146922000Y-72706666D02*
X146922000Y-72006666D01*
X147155333Y-72506666D01*
X147388666Y-72006666D01*
X147388666Y-72706666D01*
X148122000Y-72640000D02*
X148088666Y-72673333D01*
X147988666Y-72706666D01*
X147922000Y-72706666D01*
X147822000Y-72673333D01*
X147755333Y-72606666D01*
X147722000Y-72540000D01*
X147688666Y-72406666D01*
X147688666Y-72306666D01*
X147722000Y-72173333D01*
X147755333Y-72106666D01*
X147822000Y-72040000D01*
X147922000Y-72006666D01*
X147988666Y-72006666D01*
X148088666Y-72040000D01*
X148122000Y-72073333D01*
X148422000Y-72706666D02*
X148422000Y-72006666D01*
X148688666Y-72006666D01*
X148755333Y-72040000D01*
X148788666Y-72073333D01*
X148822000Y-72140000D01*
X148822000Y-72240000D01*
X148788666Y-72306666D01*
X148755333Y-72340000D01*
X148688666Y-72373333D01*
X148422000Y-72373333D01*
X149422000Y-72240000D02*
X149422000Y-72706666D01*
X149255333Y-71973333D02*
X149088666Y-72473333D01*
X149522000Y-72473333D01*
X150155333Y-72706666D02*
X149755333Y-72706666D01*
X149955333Y-72706666D02*
X149955333Y-72006666D01*
X149888666Y-72106666D01*
X149822000Y-72173333D01*
X149755333Y-72206666D01*
X150755333Y-72006666D02*
X150622000Y-72006666D01*
X150555333Y-72040000D01*
X150522000Y-72073333D01*
X150455333Y-72173333D01*
X150422000Y-72306666D01*
X150422000Y-72573333D01*
X150455333Y-72640000D01*
X150488666Y-72673333D01*
X150555333Y-72706666D01*
X150688666Y-72706666D01*
X150755333Y-72673333D01*
X150788666Y-72640000D01*
X150822000Y-72573333D01*
X150822000Y-72406666D01*
X150788666Y-72340000D01*
X150755333Y-72306666D01*
X150688666Y-72273333D01*
X150555333Y-72273333D01*
X150488666Y-72306666D01*
X150455333Y-72340000D01*
X150422000Y-72406666D01*
X151488666Y-72706666D02*
X151088666Y-72706666D01*
X151288666Y-72706666D02*
X151288666Y-72006666D01*
X151222000Y-72106666D01*
X151155333Y-72173333D01*
X151088666Y-72206666D01*
X151788666Y-72440000D02*
X152322000Y-72440000D01*
X153022000Y-72706666D02*
X152622000Y-72706666D01*
X152822000Y-72706666D02*
X152822000Y-72006666D01*
X152755333Y-72106666D01*
X152688666Y-72173333D01*
X152622000Y-72206666D01*
X153455333Y-72006666D02*
X153522000Y-72006666D01*
X153588666Y-72040000D01*
X153622000Y-72073333D01*
X153655333Y-72140000D01*
X153688666Y-72273333D01*
X153688666Y-72440000D01*
X153655333Y-72573333D01*
X153622000Y-72640000D01*
X153588666Y-72673333D01*
X153522000Y-72706666D01*
X153455333Y-72706666D01*
X153388666Y-72673333D01*
X153355333Y-72640000D01*
X153322000Y-72573333D01*
X153288666Y-72440000D01*
X153288666Y-72273333D01*
X153322000Y-72140000D01*
X153355333Y-72073333D01*
X153388666Y-72040000D01*
X153455333Y-72006666D01*
X154288666Y-72240000D02*
X154288666Y-72706666D01*
X154122000Y-71973333D02*
X153955333Y-72473333D01*
X154388666Y-72473333D01*
X148226500Y-64512000D02*
X148193166Y-64545333D01*
X148093166Y-64578666D01*
X148026500Y-64578666D01*
X147926500Y-64545333D01*
X147859833Y-64478666D01*
X147826500Y-64412000D01*
X147793166Y-64278666D01*
X147793166Y-64178666D01*
X147826500Y-64045333D01*
X147859833Y-63978666D01*
X147926500Y-63912000D01*
X148026500Y-63878666D01*
X148093166Y-63878666D01*
X148193166Y-63912000D01*
X148226500Y-63945333D01*
X148893166Y-64578666D02*
X148493166Y-64578666D01*
X148693166Y-64578666D02*
X148693166Y-63878666D01*
X148626500Y-63978666D01*
X148559833Y-64045333D01*
X148493166Y-64078666D01*
X152684166Y-64112000D02*
X152684166Y-64578666D01*
X152517500Y-63845333D02*
X152350833Y-64345333D01*
X152784166Y-64345333D01*
X153350833Y-64112000D02*
X153350833Y-64578666D01*
X153050833Y-64112000D02*
X153050833Y-64478666D01*
X153084166Y-64545333D01*
X153150833Y-64578666D01*
X153250833Y-64578666D01*
X153317500Y-64545333D01*
X153350833Y-64512000D01*
X153617500Y-63878666D02*
X154084166Y-63878666D01*
X153784166Y-64578666D01*
X148226500Y-66036000D02*
X148193166Y-66069333D01*
X148093166Y-66102666D01*
X148026500Y-66102666D01*
X147926500Y-66069333D01*
X147859833Y-66002666D01*
X147826500Y-65936000D01*
X147793166Y-65802666D01*
X147793166Y-65702666D01*
X147826500Y-65569333D01*
X147859833Y-65502666D01*
X147926500Y-65436000D01*
X148026500Y-65402666D01*
X148093166Y-65402666D01*
X148193166Y-65436000D01*
X148226500Y-65469333D01*
X148493166Y-65469333D02*
X148526500Y-65436000D01*
X148593166Y-65402666D01*
X148759833Y-65402666D01*
X148826500Y-65436000D01*
X148859833Y-65469333D01*
X148893166Y-65536000D01*
X148893166Y-65602666D01*
X148859833Y-65702666D01*
X148459833Y-66102666D01*
X148893166Y-66102666D01*
X152750833Y-66102666D02*
X152350833Y-66102666D01*
X152550833Y-66102666D02*
X152550833Y-65402666D01*
X152484166Y-65502666D01*
X152417500Y-65569333D01*
X152350833Y-65602666D01*
X153184166Y-65402666D02*
X153250833Y-65402666D01*
X153317500Y-65436000D01*
X153350833Y-65469333D01*
X153384166Y-65536000D01*
X153417500Y-65669333D01*
X153417500Y-65836000D01*
X153384166Y-65969333D01*
X153350833Y-66036000D01*
X153317500Y-66069333D01*
X153250833Y-66102666D01*
X153184166Y-66102666D01*
X153117500Y-66069333D01*
X153084166Y-66036000D01*
X153050833Y-65969333D01*
X153017500Y-65836000D01*
X153017500Y-65669333D01*
X153050833Y-65536000D01*
X153084166Y-65469333D01*
X153117500Y-65436000D01*
X153184166Y-65402666D01*
X153850833Y-65402666D02*
X153917500Y-65402666D01*
X153984166Y-65436000D01*
X154017500Y-65469333D01*
X154050833Y-65536000D01*
X154084166Y-65669333D01*
X154084166Y-65836000D01*
X154050833Y-65969333D01*
X154017500Y-66036000D01*
X153984166Y-66069333D01*
X153917500Y-66102666D01*
X153850833Y-66102666D01*
X153784166Y-66069333D01*
X153750833Y-66036000D01*
X153717500Y-65969333D01*
X153684166Y-65836000D01*
X153684166Y-65669333D01*
X153717500Y-65536000D01*
X153750833Y-65469333D01*
X153784166Y-65436000D01*
X153850833Y-65402666D01*
X154384166Y-65636000D02*
X154384166Y-66102666D01*
X154384166Y-65702666D02*
X154417500Y-65669333D01*
X154484166Y-65636000D01*
X154584166Y-65636000D01*
X154650833Y-65669333D01*
X154684166Y-65736000D01*
X154684166Y-66102666D01*
M02*
