G04 #@! TF.GenerationSoftware,KiCad,Pcbnew,5.1.2-f72e74a~84~ubuntu16.04.1*
G04 #@! TF.CreationDate,2019-07-19T18:16:20+01:00*
G04 #@! TF.ProjectId,DigitalPot,44696769-7461-46c5-906f-742e6b696361,rev?*
G04 #@! TF.SameCoordinates,Original*
G04 #@! TF.FileFunction,Copper,L2,Bot*
G04 #@! TF.FilePolarity,Positive*
%FSLAX46Y46*%
G04 Gerber Fmt 4.6, Leading zero omitted, Abs format (unit mm)*
G04 Created by KiCad (PCBNEW 5.1.2-f72e74a~84~ubuntu16.04.1) date 2019-07-19 18:16:20*
%MOMM*%
%LPD*%
G04 APERTURE LIST*
%ADD10R,1.700000X1.700000*%
%ADD11O,1.700000X1.700000*%
%ADD12C,0.254000*%
G04 APERTURE END LIST*
D10*
X151892000Y-73914000D03*
D11*
X149352000Y-73914000D03*
D10*
X145034000Y-63754000D03*
D11*
X145034000Y-66294000D03*
X145034000Y-68834000D03*
X145034000Y-71374000D03*
X145034000Y-73914000D03*
D10*
X156210000Y-73914000D03*
D11*
X156210000Y-71374000D03*
X156210000Y-68834000D03*
D12*
G36*
X143732815Y-62452815D02*
G01*
X143653463Y-62549506D01*
X143594498Y-62659820D01*
X143558188Y-62779518D01*
X143545928Y-62904000D01*
X143545928Y-64604000D01*
X143558188Y-64728482D01*
X143594498Y-64848180D01*
X143653463Y-64958494D01*
X143732815Y-65055185D01*
X143829506Y-65134537D01*
X143939820Y-65193502D01*
X144008687Y-65214393D01*
X143978866Y-65238866D01*
X143793294Y-65464986D01*
X143655401Y-65722966D01*
X143570487Y-66002889D01*
X143541815Y-66294000D01*
X143570487Y-66585111D01*
X143655401Y-66865034D01*
X143793294Y-67123014D01*
X143978866Y-67349134D01*
X144204986Y-67534706D01*
X144259791Y-67564000D01*
X144204986Y-67593294D01*
X143978866Y-67778866D01*
X143793294Y-68004986D01*
X143655401Y-68262966D01*
X143570487Y-68542889D01*
X143541815Y-68834000D01*
X143570487Y-69125111D01*
X143655401Y-69405034D01*
X143793294Y-69663014D01*
X143978866Y-69889134D01*
X144204986Y-70074706D01*
X144259791Y-70104000D01*
X144204986Y-70133294D01*
X143978866Y-70318866D01*
X143793294Y-70544986D01*
X143655401Y-70802966D01*
X143570487Y-71082889D01*
X143541815Y-71374000D01*
X143570487Y-71665111D01*
X143655401Y-71945034D01*
X143793294Y-72203014D01*
X143978866Y-72429134D01*
X144204986Y-72614706D01*
X144269523Y-72649201D01*
X144152645Y-72718822D01*
X143936412Y-72913731D01*
X143762359Y-73147080D01*
X143637175Y-73409901D01*
X143592524Y-73557110D01*
X143713845Y-73787000D01*
X144907000Y-73787000D01*
X144907000Y-73767000D01*
X145161000Y-73767000D01*
X145161000Y-73787000D01*
X146354155Y-73787000D01*
X146475476Y-73557110D01*
X146475476Y-73557109D01*
X147910519Y-73557109D01*
X148031186Y-73787000D01*
X149225000Y-73787000D01*
X149225000Y-72593845D01*
X149479000Y-72593845D01*
X149479000Y-73787000D01*
X149499000Y-73787000D01*
X149499000Y-74041000D01*
X149479000Y-74041000D01*
X149479000Y-75234155D01*
X149708890Y-75355476D01*
X149856099Y-75310825D01*
X150118920Y-75185641D01*
X150352269Y-75011588D01*
X150428034Y-74927534D01*
X150452498Y-75008180D01*
X150511463Y-75118494D01*
X150590815Y-75215185D01*
X150687506Y-75294537D01*
X150797820Y-75353502D01*
X150917518Y-75389812D01*
X151042000Y-75402072D01*
X152742000Y-75402072D01*
X152866482Y-75389812D01*
X152986180Y-75353502D01*
X153096494Y-75294537D01*
X153193185Y-75215185D01*
X153272537Y-75118494D01*
X153331502Y-75008180D01*
X153367812Y-74888482D01*
X153380072Y-74764000D01*
X153380072Y-73064000D01*
X153367812Y-72939518D01*
X153331502Y-72819820D01*
X153272537Y-72709506D01*
X153193185Y-72612815D01*
X153096494Y-72533463D01*
X152986180Y-72474498D01*
X152866482Y-72438188D01*
X152742000Y-72425928D01*
X151042000Y-72425928D01*
X150917518Y-72438188D01*
X150797820Y-72474498D01*
X150687506Y-72533463D01*
X150590815Y-72612815D01*
X150511463Y-72709506D01*
X150452498Y-72819820D01*
X150428034Y-72900466D01*
X150352269Y-72816412D01*
X150118920Y-72642359D01*
X149856099Y-72517175D01*
X149708890Y-72472524D01*
X149479000Y-72593845D01*
X149225000Y-72593845D01*
X148995110Y-72472524D01*
X148847901Y-72517175D01*
X148585080Y-72642359D01*
X148351731Y-72816412D01*
X148156822Y-73032645D01*
X148007843Y-73282748D01*
X147910519Y-73557109D01*
X146475476Y-73557109D01*
X146430825Y-73409901D01*
X146305641Y-73147080D01*
X146131588Y-72913731D01*
X145915355Y-72718822D01*
X145798477Y-72649201D01*
X145863014Y-72614706D01*
X146089134Y-72429134D01*
X146274706Y-72203014D01*
X146412599Y-71945034D01*
X146497513Y-71665111D01*
X146526185Y-71374000D01*
X146497513Y-71082889D01*
X146412599Y-70802966D01*
X146274706Y-70544986D01*
X146089134Y-70318866D01*
X145863014Y-70133294D01*
X145808209Y-70104000D01*
X145863014Y-70074706D01*
X146089134Y-69889134D01*
X146274706Y-69663014D01*
X146412599Y-69405034D01*
X146497513Y-69125111D01*
X146526185Y-68834000D01*
X154717815Y-68834000D01*
X154746487Y-69125111D01*
X154831401Y-69405034D01*
X154969294Y-69663014D01*
X155154866Y-69889134D01*
X155380986Y-70074706D01*
X155435791Y-70104000D01*
X155380986Y-70133294D01*
X155154866Y-70318866D01*
X154969294Y-70544986D01*
X154831401Y-70802966D01*
X154746487Y-71082889D01*
X154717815Y-71374000D01*
X154746487Y-71665111D01*
X154831401Y-71945034D01*
X154969294Y-72203014D01*
X155154866Y-72429134D01*
X155184687Y-72453607D01*
X155115820Y-72474498D01*
X155005506Y-72533463D01*
X154908815Y-72612815D01*
X154829463Y-72709506D01*
X154770498Y-72819820D01*
X154734188Y-72939518D01*
X154721928Y-73064000D01*
X154721928Y-74764000D01*
X154734188Y-74888482D01*
X154770498Y-75008180D01*
X154829463Y-75118494D01*
X154908815Y-75215185D01*
X155005506Y-75294537D01*
X155115820Y-75353502D01*
X155235518Y-75389812D01*
X155360000Y-75402072D01*
X157060000Y-75402072D01*
X157184482Y-75389812D01*
X157304180Y-75353502D01*
X157414494Y-75294537D01*
X157511185Y-75215185D01*
X157590537Y-75118494D01*
X157649502Y-75008180D01*
X157685812Y-74888482D01*
X157698072Y-74764000D01*
X157698072Y-73064000D01*
X157685812Y-72939518D01*
X157649502Y-72819820D01*
X157590537Y-72709506D01*
X157511185Y-72612815D01*
X157414494Y-72533463D01*
X157304180Y-72474498D01*
X157235313Y-72453607D01*
X157265134Y-72429134D01*
X157450706Y-72203014D01*
X157588599Y-71945034D01*
X157673513Y-71665111D01*
X157702185Y-71374000D01*
X157673513Y-71082889D01*
X157588599Y-70802966D01*
X157450706Y-70544986D01*
X157265134Y-70318866D01*
X157039014Y-70133294D01*
X156984209Y-70104000D01*
X157039014Y-70074706D01*
X157265134Y-69889134D01*
X157450706Y-69663014D01*
X157588599Y-69405034D01*
X157673513Y-69125111D01*
X157702185Y-68834000D01*
X157673513Y-68542889D01*
X157588599Y-68262966D01*
X157450706Y-68004986D01*
X157265134Y-67778866D01*
X157039014Y-67593294D01*
X156781034Y-67455401D01*
X156501111Y-67370487D01*
X156282950Y-67349000D01*
X156137050Y-67349000D01*
X155918889Y-67370487D01*
X155638966Y-67455401D01*
X155380986Y-67593294D01*
X155154866Y-67778866D01*
X154969294Y-68004986D01*
X154831401Y-68262966D01*
X154746487Y-68542889D01*
X154717815Y-68834000D01*
X146526185Y-68834000D01*
X146497513Y-68542889D01*
X146412599Y-68262966D01*
X146274706Y-68004986D01*
X146089134Y-67778866D01*
X145863014Y-67593294D01*
X145808209Y-67564000D01*
X145863014Y-67534706D01*
X146089134Y-67349134D01*
X146274706Y-67123014D01*
X146412599Y-66865034D01*
X146497513Y-66585111D01*
X146526185Y-66294000D01*
X146497513Y-66002889D01*
X146412599Y-65722966D01*
X146274706Y-65464986D01*
X146089134Y-65238866D01*
X146059313Y-65214393D01*
X146128180Y-65193502D01*
X146238494Y-65134537D01*
X146335185Y-65055185D01*
X146414537Y-64958494D01*
X146473502Y-64848180D01*
X146509812Y-64728482D01*
X146522072Y-64604000D01*
X146522072Y-64345117D01*
X154221000Y-64345117D01*
X154221000Y-64686883D01*
X154287675Y-65022081D01*
X154418463Y-65337831D01*
X154608337Y-65621998D01*
X154850002Y-65863663D01*
X155134169Y-66053537D01*
X155449919Y-66184325D01*
X155785117Y-66251000D01*
X156126883Y-66251000D01*
X156462081Y-66184325D01*
X156777831Y-66053537D01*
X157061998Y-65863663D01*
X157303663Y-65621998D01*
X157493537Y-65337831D01*
X157624325Y-65022081D01*
X157691000Y-64686883D01*
X157691000Y-64345117D01*
X157624325Y-64009919D01*
X157493537Y-63694169D01*
X157303663Y-63410002D01*
X157061998Y-63168337D01*
X156777831Y-62978463D01*
X156462081Y-62847675D01*
X156126883Y-62781000D01*
X155785117Y-62781000D01*
X155449919Y-62847675D01*
X155134169Y-62978463D01*
X154850002Y-63168337D01*
X154608337Y-63410002D01*
X154418463Y-63694169D01*
X154287675Y-64009919D01*
X154221000Y-64345117D01*
X146522072Y-64345117D01*
X146522072Y-62904000D01*
X146509812Y-62779518D01*
X146473502Y-62659820D01*
X146414537Y-62549506D01*
X146335185Y-62452815D01*
X146248896Y-62382000D01*
X158090000Y-62382000D01*
X158090001Y-75540000D01*
X143154000Y-75540000D01*
X143154000Y-74270890D01*
X143592524Y-74270890D01*
X143637175Y-74418099D01*
X143762359Y-74680920D01*
X143936412Y-74914269D01*
X144152645Y-75109178D01*
X144402748Y-75258157D01*
X144677109Y-75355481D01*
X144907000Y-75234814D01*
X144907000Y-74041000D01*
X145161000Y-74041000D01*
X145161000Y-75234814D01*
X145390891Y-75355481D01*
X145665252Y-75258157D01*
X145915355Y-75109178D01*
X146131588Y-74914269D01*
X146305641Y-74680920D01*
X146430825Y-74418099D01*
X146475475Y-74270891D01*
X147910519Y-74270891D01*
X148007843Y-74545252D01*
X148156822Y-74795355D01*
X148351731Y-75011588D01*
X148585080Y-75185641D01*
X148847901Y-75310825D01*
X148995110Y-75355476D01*
X149225000Y-75234155D01*
X149225000Y-74041000D01*
X148031186Y-74041000D01*
X147910519Y-74270891D01*
X146475475Y-74270891D01*
X146475476Y-74270890D01*
X146354155Y-74041000D01*
X145161000Y-74041000D01*
X144907000Y-74041000D01*
X143713845Y-74041000D01*
X143592524Y-74270890D01*
X143154000Y-74270890D01*
X143154000Y-62382000D01*
X143819104Y-62382000D01*
X143732815Y-62452815D01*
X143732815Y-62452815D01*
G37*
X143732815Y-62452815D02*
X143653463Y-62549506D01*
X143594498Y-62659820D01*
X143558188Y-62779518D01*
X143545928Y-62904000D01*
X143545928Y-64604000D01*
X143558188Y-64728482D01*
X143594498Y-64848180D01*
X143653463Y-64958494D01*
X143732815Y-65055185D01*
X143829506Y-65134537D01*
X143939820Y-65193502D01*
X144008687Y-65214393D01*
X143978866Y-65238866D01*
X143793294Y-65464986D01*
X143655401Y-65722966D01*
X143570487Y-66002889D01*
X143541815Y-66294000D01*
X143570487Y-66585111D01*
X143655401Y-66865034D01*
X143793294Y-67123014D01*
X143978866Y-67349134D01*
X144204986Y-67534706D01*
X144259791Y-67564000D01*
X144204986Y-67593294D01*
X143978866Y-67778866D01*
X143793294Y-68004986D01*
X143655401Y-68262966D01*
X143570487Y-68542889D01*
X143541815Y-68834000D01*
X143570487Y-69125111D01*
X143655401Y-69405034D01*
X143793294Y-69663014D01*
X143978866Y-69889134D01*
X144204986Y-70074706D01*
X144259791Y-70104000D01*
X144204986Y-70133294D01*
X143978866Y-70318866D01*
X143793294Y-70544986D01*
X143655401Y-70802966D01*
X143570487Y-71082889D01*
X143541815Y-71374000D01*
X143570487Y-71665111D01*
X143655401Y-71945034D01*
X143793294Y-72203014D01*
X143978866Y-72429134D01*
X144204986Y-72614706D01*
X144269523Y-72649201D01*
X144152645Y-72718822D01*
X143936412Y-72913731D01*
X143762359Y-73147080D01*
X143637175Y-73409901D01*
X143592524Y-73557110D01*
X143713845Y-73787000D01*
X144907000Y-73787000D01*
X144907000Y-73767000D01*
X145161000Y-73767000D01*
X145161000Y-73787000D01*
X146354155Y-73787000D01*
X146475476Y-73557110D01*
X146475476Y-73557109D01*
X147910519Y-73557109D01*
X148031186Y-73787000D01*
X149225000Y-73787000D01*
X149225000Y-72593845D01*
X149479000Y-72593845D01*
X149479000Y-73787000D01*
X149499000Y-73787000D01*
X149499000Y-74041000D01*
X149479000Y-74041000D01*
X149479000Y-75234155D01*
X149708890Y-75355476D01*
X149856099Y-75310825D01*
X150118920Y-75185641D01*
X150352269Y-75011588D01*
X150428034Y-74927534D01*
X150452498Y-75008180D01*
X150511463Y-75118494D01*
X150590815Y-75215185D01*
X150687506Y-75294537D01*
X150797820Y-75353502D01*
X150917518Y-75389812D01*
X151042000Y-75402072D01*
X152742000Y-75402072D01*
X152866482Y-75389812D01*
X152986180Y-75353502D01*
X153096494Y-75294537D01*
X153193185Y-75215185D01*
X153272537Y-75118494D01*
X153331502Y-75008180D01*
X153367812Y-74888482D01*
X153380072Y-74764000D01*
X153380072Y-73064000D01*
X153367812Y-72939518D01*
X153331502Y-72819820D01*
X153272537Y-72709506D01*
X153193185Y-72612815D01*
X153096494Y-72533463D01*
X152986180Y-72474498D01*
X152866482Y-72438188D01*
X152742000Y-72425928D01*
X151042000Y-72425928D01*
X150917518Y-72438188D01*
X150797820Y-72474498D01*
X150687506Y-72533463D01*
X150590815Y-72612815D01*
X150511463Y-72709506D01*
X150452498Y-72819820D01*
X150428034Y-72900466D01*
X150352269Y-72816412D01*
X150118920Y-72642359D01*
X149856099Y-72517175D01*
X149708890Y-72472524D01*
X149479000Y-72593845D01*
X149225000Y-72593845D01*
X148995110Y-72472524D01*
X148847901Y-72517175D01*
X148585080Y-72642359D01*
X148351731Y-72816412D01*
X148156822Y-73032645D01*
X148007843Y-73282748D01*
X147910519Y-73557109D01*
X146475476Y-73557109D01*
X146430825Y-73409901D01*
X146305641Y-73147080D01*
X146131588Y-72913731D01*
X145915355Y-72718822D01*
X145798477Y-72649201D01*
X145863014Y-72614706D01*
X146089134Y-72429134D01*
X146274706Y-72203014D01*
X146412599Y-71945034D01*
X146497513Y-71665111D01*
X146526185Y-71374000D01*
X146497513Y-71082889D01*
X146412599Y-70802966D01*
X146274706Y-70544986D01*
X146089134Y-70318866D01*
X145863014Y-70133294D01*
X145808209Y-70104000D01*
X145863014Y-70074706D01*
X146089134Y-69889134D01*
X146274706Y-69663014D01*
X146412599Y-69405034D01*
X146497513Y-69125111D01*
X146526185Y-68834000D01*
X154717815Y-68834000D01*
X154746487Y-69125111D01*
X154831401Y-69405034D01*
X154969294Y-69663014D01*
X155154866Y-69889134D01*
X155380986Y-70074706D01*
X155435791Y-70104000D01*
X155380986Y-70133294D01*
X155154866Y-70318866D01*
X154969294Y-70544986D01*
X154831401Y-70802966D01*
X154746487Y-71082889D01*
X154717815Y-71374000D01*
X154746487Y-71665111D01*
X154831401Y-71945034D01*
X154969294Y-72203014D01*
X155154866Y-72429134D01*
X155184687Y-72453607D01*
X155115820Y-72474498D01*
X155005506Y-72533463D01*
X154908815Y-72612815D01*
X154829463Y-72709506D01*
X154770498Y-72819820D01*
X154734188Y-72939518D01*
X154721928Y-73064000D01*
X154721928Y-74764000D01*
X154734188Y-74888482D01*
X154770498Y-75008180D01*
X154829463Y-75118494D01*
X154908815Y-75215185D01*
X155005506Y-75294537D01*
X155115820Y-75353502D01*
X155235518Y-75389812D01*
X155360000Y-75402072D01*
X157060000Y-75402072D01*
X157184482Y-75389812D01*
X157304180Y-75353502D01*
X157414494Y-75294537D01*
X157511185Y-75215185D01*
X157590537Y-75118494D01*
X157649502Y-75008180D01*
X157685812Y-74888482D01*
X157698072Y-74764000D01*
X157698072Y-73064000D01*
X157685812Y-72939518D01*
X157649502Y-72819820D01*
X157590537Y-72709506D01*
X157511185Y-72612815D01*
X157414494Y-72533463D01*
X157304180Y-72474498D01*
X157235313Y-72453607D01*
X157265134Y-72429134D01*
X157450706Y-72203014D01*
X157588599Y-71945034D01*
X157673513Y-71665111D01*
X157702185Y-71374000D01*
X157673513Y-71082889D01*
X157588599Y-70802966D01*
X157450706Y-70544986D01*
X157265134Y-70318866D01*
X157039014Y-70133294D01*
X156984209Y-70104000D01*
X157039014Y-70074706D01*
X157265134Y-69889134D01*
X157450706Y-69663014D01*
X157588599Y-69405034D01*
X157673513Y-69125111D01*
X157702185Y-68834000D01*
X157673513Y-68542889D01*
X157588599Y-68262966D01*
X157450706Y-68004986D01*
X157265134Y-67778866D01*
X157039014Y-67593294D01*
X156781034Y-67455401D01*
X156501111Y-67370487D01*
X156282950Y-67349000D01*
X156137050Y-67349000D01*
X155918889Y-67370487D01*
X155638966Y-67455401D01*
X155380986Y-67593294D01*
X155154866Y-67778866D01*
X154969294Y-68004986D01*
X154831401Y-68262966D01*
X154746487Y-68542889D01*
X154717815Y-68834000D01*
X146526185Y-68834000D01*
X146497513Y-68542889D01*
X146412599Y-68262966D01*
X146274706Y-68004986D01*
X146089134Y-67778866D01*
X145863014Y-67593294D01*
X145808209Y-67564000D01*
X145863014Y-67534706D01*
X146089134Y-67349134D01*
X146274706Y-67123014D01*
X146412599Y-66865034D01*
X146497513Y-66585111D01*
X146526185Y-66294000D01*
X146497513Y-66002889D01*
X146412599Y-65722966D01*
X146274706Y-65464986D01*
X146089134Y-65238866D01*
X146059313Y-65214393D01*
X146128180Y-65193502D01*
X146238494Y-65134537D01*
X146335185Y-65055185D01*
X146414537Y-64958494D01*
X146473502Y-64848180D01*
X146509812Y-64728482D01*
X146522072Y-64604000D01*
X146522072Y-64345117D01*
X154221000Y-64345117D01*
X154221000Y-64686883D01*
X154287675Y-65022081D01*
X154418463Y-65337831D01*
X154608337Y-65621998D01*
X154850002Y-65863663D01*
X155134169Y-66053537D01*
X155449919Y-66184325D01*
X155785117Y-66251000D01*
X156126883Y-66251000D01*
X156462081Y-66184325D01*
X156777831Y-66053537D01*
X157061998Y-65863663D01*
X157303663Y-65621998D01*
X157493537Y-65337831D01*
X157624325Y-65022081D01*
X157691000Y-64686883D01*
X157691000Y-64345117D01*
X157624325Y-64009919D01*
X157493537Y-63694169D01*
X157303663Y-63410002D01*
X157061998Y-63168337D01*
X156777831Y-62978463D01*
X156462081Y-62847675D01*
X156126883Y-62781000D01*
X155785117Y-62781000D01*
X155449919Y-62847675D01*
X155134169Y-62978463D01*
X154850002Y-63168337D01*
X154608337Y-63410002D01*
X154418463Y-63694169D01*
X154287675Y-64009919D01*
X154221000Y-64345117D01*
X146522072Y-64345117D01*
X146522072Y-62904000D01*
X146509812Y-62779518D01*
X146473502Y-62659820D01*
X146414537Y-62549506D01*
X146335185Y-62452815D01*
X146248896Y-62382000D01*
X158090000Y-62382000D01*
X158090001Y-75540000D01*
X143154000Y-75540000D01*
X143154000Y-74270890D01*
X143592524Y-74270890D01*
X143637175Y-74418099D01*
X143762359Y-74680920D01*
X143936412Y-74914269D01*
X144152645Y-75109178D01*
X144402748Y-75258157D01*
X144677109Y-75355481D01*
X144907000Y-75234814D01*
X144907000Y-74041000D01*
X145161000Y-74041000D01*
X145161000Y-75234814D01*
X145390891Y-75355481D01*
X145665252Y-75258157D01*
X145915355Y-75109178D01*
X146131588Y-74914269D01*
X146305641Y-74680920D01*
X146430825Y-74418099D01*
X146475475Y-74270891D01*
X147910519Y-74270891D01*
X148007843Y-74545252D01*
X148156822Y-74795355D01*
X148351731Y-75011588D01*
X148585080Y-75185641D01*
X148847901Y-75310825D01*
X148995110Y-75355476D01*
X149225000Y-75234155D01*
X149225000Y-74041000D01*
X148031186Y-74041000D01*
X147910519Y-74270891D01*
X146475475Y-74270891D01*
X146475476Y-74270890D01*
X146354155Y-74041000D01*
X145161000Y-74041000D01*
X144907000Y-74041000D01*
X143713845Y-74041000D01*
X143592524Y-74270890D01*
X143154000Y-74270890D01*
X143154000Y-62382000D01*
X143819104Y-62382000D01*
X143732815Y-62452815D01*
M02*
